<svg width="900" height="620" viewBox="0 0 900 620" fill="none" xmlns="http://www.w3.org/2000/svg">
  <rect width="900" height="620" rx="44" fill="url(#paint0_linear)"/>
  <ellipse cx="462" cy="470" rx="248" ry="62" fill="#07130F" fill-opacity="0.58"/>
  <path d="M213 428L436 320L653 432L424 540L213 428Z" fill="url(#paint1_linear)"/>
  <path d="M436 320V404L653 514V432L436 320Z" fill="url(#paint2_linear)"/>
  <path d="M213 428V494L424 606V540L213 428Z" fill="url(#paint3_linear)"/>
  <rect x="316" y="171" width="292" height="192" rx="28" fill="url(#paint4_linear)"/>
  <rect x="336" y="194" width="252" height="148" rx="20" fill="#EFF7F1"/>
  <rect x="360" y="220" width="88" height="16" rx="8" fill="#D5ECDC"/>
  <rect x="360" y="254" width="184" height="16" rx="8" fill="#D5ECDC"/>
  <rect x="360" y="286" width="142" height="16" rx="8" fill="#D5ECDC"/>
  <path d="M396 351L448 309L508 335L552 280" stroke="#18A56E" stroke-width="16" stroke-linecap="round" stroke-linejoin="round"/>
  <circle cx="395" cy="351" r="14" fill="#F5D48C"/>
  <circle cx="448" cy="309" r="14" fill="#F5D48C"/>
  <circle cx="508" cy="335" r="14" fill="#F5D48C"/>
  <circle cx="552" cy="280" r="14" fill="#F5D48C"/>
  <path d="M602 179L678 228V323L602 371L526 323V228L602 179Z" fill="url(#paint5_linear)"/>
  <path d="M603 221L639 242V282C639 303.5 624.333 322.333 603 335C581.667 322.333 567 303.5 567 282V242L603 221Z" fill="#EFF7F1"/>
  <path d="M588 279L599 290L620 265" stroke="#18A56E" stroke-width="10" stroke-linecap="round" stroke-linejoin="round"/>
  <g opacity="0.9">
    <path d="M248 257L305 290V356L248 389L191 356V290L248 257Z" fill="url(#paint6_linear)"/>
    <path d="M222 351H274" stroke="#EFF7F1" stroke-width="10" stroke-linecap="round"/>
    <path d="M248 324V378" stroke="#EFF7F1" stroke-width="10" stroke-linecap="round"/>
  </g>
  <circle cx="245" cy="151" r="43" fill="#F5D48C" fill-opacity="0.24"/>
  <circle cx="683" cy="119" r="55" fill="#8EF0B1" fill-opacity="0.16"/>
  <defs>
    <linearGradient id="paint0_linear" x1="54" y1="48" x2="792" y2="566" gradientUnits="userSpaceOnUse">
      <stop stop-color="#0F3C31"/>
      <stop offset="1" stop-color="#071511"/>
    </linearGradient>
    <linearGradient id="paint1_linear" x1="213" y1="320" x2="653" y2="540" gradientUnits="userSpaceOnUse">
      <stop stop-color="#174B3D"/>
      <stop offset="1" stop-color="#0B231C"/>
    </linearGradient>
    <linearGradient id="paint2_linear" x1="436" y1="320" x2="653" y2="514" gradientUnits="userSpaceOnUse">
      <stop stop-color="#1DAF74"/>
      <stop offset="1" stop-color="#107853"/>
    </linearGradient>
    <linearGradient id="paint3_linear" x1="213" y1="428" x2="424" y2="606" gradientUnits="userSpaceOnUse">
      <stop stop-color="#0A1C16"/>
      <stop offset="1" stop-color="#14372D"/>
    </linearGradient>
    <linearGradient id="paint4_linear" x1="316" y1="171" x2="608" y2="363" gradientUnits="userSpaceOnUse">
      <stop stop-color="#1CB174"/>
      <stop offset="1" stop-color="#11734F"/>
    </linearGradient>
    <linearGradient id="paint5_linear" x1="526" y1="179" x2="678" y2="371" gradientUnits="userSpaceOnUse">
      <stop stop-color="#F7E3A5"/>
      <stop offset="1" stop-color="#E0B95D"/>
    </linearGradient>
    <linearGradient id="paint6_linear" x1="191" y1="257" x2="305" y2="389" gradientUnits="userSpaceOnUse">
      <stop stop-color="#188D61"/>
      <stop offset="1" stop-color="#0B2F25"/>
    </linearGradient>
  </defs>
</svg>
